<?xml version="1.0" encoding="UTF-8" standalone="yes"?>
<!-- Created with qrencode 4.1.1 (https://fukuchi.org/works/qrencode/index.html) -->
<svg width="3.92cm" height="3.92cm" viewBox="0 0 37 37" preserveAspectRatio="none" version="1.1" xmlns="http://www.w3.org/2000/svg">
	<g id="QRcode">
		<rect x="0" y="0" width="37" height="37" fill="#ffffff"/>
		<path style="stroke:#000000" transform="translate(4,4.5)" d="M0,0h1M1,0h1M2,0h1M3,0h1M4,0h1M5,0h1M6,0h1M8,0h1M13,0h1M14,0h1M15,0h1M18,0h1M19,0h1M20,0h1M22,0h1M23,0h1M24,0h1M25,0h1M26,0h1M27,0h1M28,0h1M0,1h1M6,1h1M8,1h1M11,1h1M12,1h1M13,1h1M15,1h1M22,1h1M28,1h1M0,2h1M2,2h1M3,2h1M4,2h1M6,2h1M8,2h1M9,2h1M12,2h1M15,2h1M17,2h1M20,2h1M22,2h1M24,2h1M25,2h1M26,2h1M28,2h1M0,3h1M2,3h1M3,3h1M4,3h1M6,3h1M8,3h1M9,3h1M10,3h1M12,3h1M14,3h1M16,3h1M17,3h1M18,3h1M22,3h1M24,3h1M25,3h1M26,3h1M28,3h1M0,4h1M2,4h1M3,4h1M4,4h1M6,4h1M9,4h1M10,4h1M12,4h1M13,4h1M14,4h1M15,4h1M17,4h1M18,4h1M19,4h1M22,4h1M24,4h1M25,4h1M26,4h1M28,4h1M0,5h1M6,5h1M8,5h1M9,5h1M10,5h1M15,5h1M16,5h1M17,5h1M19,5h1M20,5h1M22,5h1M28,5h1M0,6h1M1,6h1M2,6h1M3,6h1M4,6h1M5,6h1M6,6h1M8,6h1M10,6h1M12,6h1M14,6h1M16,6h1M18,6h1M20,6h1M22,6h1M23,6h1M24,6h1M25,6h1M26,6h1M27,6h1M28,6h1M10,7h1M11,7h1M14,7h1M15,7h1M20,7h1M0,8h1M1,8h1M4,8h1M5,8h1M6,8h1M10,8h1M12,8h1M13,8h1M15,8h1M18,8h1M19,8h1M20,8h1M23,8h1M25,8h1M26,8h1M27,8h1M28,8h1M0,9h1M2,9h1M4,9h1M5,9h1M8,9h1M13,9h1M14,9h1M15,9h1M17,9h1M18,9h1M19,9h1M22,9h1M28,9h1M2,10h1M3,10h1M4,10h1M6,10h1M7,10h1M8,10h1M9,10h1M10,10h1M13,10h1M14,10h1M15,10h1M17,10h1M18,10h1M19,10h1M22,10h1M25,10h1M26,10h1M28,10h1M0,11h1M1,11h1M2,11h1M3,11h1M5,11h1M9,11h1M12,11h1M15,11h1M19,11h1M22,11h1M25,11h1M0,12h1M1,12h1M3,12h1M4,12h1M5,12h1M6,12h1M8,12h1M11,12h1M13,12h1M15,12h1M17,12h1M18,12h1M19,12h1M20,12h1M25,12h1M3,13h1M7,13h1M9,13h1M10,13h1M12,13h1M13,13h1M14,13h1M17,13h1M18,13h1M19,13h1M20,13h1M22,13h1M24,13h1M26,13h1M28,13h1M0,14h1M3,14h1M6,14h1M8,14h1M10,14h1M11,14h1M12,14h1M13,14h1M14,14h1M16,14h1M17,14h1M18,14h1M19,14h1M22,14h1M28,14h1M0,15h1M1,15h1M2,15h1M8,15h1M9,15h1M11,15h1M17,15h1M19,15h1M20,15h1M25,15h1M27,15h1M0,16h1M1,16h1M2,16h1M4,16h1M6,16h1M10,16h1M12,16h1M15,16h1M17,16h1M18,16h1M19,16h1M20,16h1M21,16h1M25,16h1M0,17h1M2,17h1M4,17h1M7,17h1M8,17h1M9,17h1M10,17h1M13,17h1M14,17h1M16,17h1M17,17h1M18,17h1M19,17h1M21,17h1M22,17h1M23,17h1M24,17h1M26,17h1M28,17h1M3,18h1M5,18h1M6,18h1M9,18h1M10,18h1M13,18h1M14,18h1M15,18h1M16,18h1M17,18h1M18,18h1M23,18h1M25,18h1M27,18h1M28,18h1M2,19h1M3,19h1M5,19h1M7,19h1M12,19h1M13,19h1M15,19h1M18,19h1M19,19h1M22,19h1M23,19h1M0,20h1M1,20h1M2,20h1M5,20h1M6,20h1M9,20h1M10,20h1M11,20h1M13,20h1M14,20h1M17,20h1M18,20h1M20,20h1M21,20h1M22,20h1M23,20h1M24,20h1M25,20h1M28,20h1M8,21h1M9,21h1M10,21h1M12,21h1M14,21h1M18,21h1M20,21h1M24,21h1M25,21h1M26,21h1M27,21h1M28,21h1M0,22h1M1,22h1M2,22h1M3,22h1M4,22h1M5,22h1M6,22h1M9,22h1M10,22h1M11,22h1M12,22h1M13,22h1M14,22h1M17,22h1M18,22h1M19,22h1M20,22h1M22,22h1M24,22h1M26,22h1M28,22h1M0,23h1M6,23h1M8,23h1M11,23h1M13,23h1M14,23h1M15,23h1M17,23h1M20,23h1M24,23h1M28,23h1M0,24h1M2,24h1M3,24h1M4,24h1M6,24h1M8,24h1M12,24h1M14,24h1M19,24h1M20,24h1M21,24h1M22,24h1M23,24h1M24,24h1M28,24h1M0,25h1M2,25h1M3,25h1M4,25h1M6,25h1M9,25h1M10,25h1M13,25h1M14,25h1M15,25h1M18,25h1M19,25h1M21,25h1M25,25h1M0,26h1M2,26h1M3,26h1M4,26h1M6,26h1M10,26h1M15,26h1M16,26h1M18,26h1M21,26h1M23,26h1M26,26h1M27,26h1M28,26h1M0,27h1M6,27h1M8,27h1M12,27h1M17,27h1M18,27h1M19,27h1M23,27h1M24,27h1M27,27h1M28,27h1M0,28h1M1,28h1M2,28h1M3,28h1M4,28h1M5,28h1M6,28h1M8,28h1M9,28h1M10,28h1M11,28h1M12,28h1M13,28h1M14,28h1M20,28h1M22,28h1M24,28h1M25,28h1M27,28h1"/>
	</g>
</svg>
